<?xml version="1.0" encoding="UTF-8"?>
<svg width="627px" height="122px" viewBox="0 0 627 122" version="1.1" xmlns="http://www.w3.org/2000/svg" xmlns:xlink="http://www.w3.org/1999/xlink">
    <title>2_dark Backround</title>
    <g id="Page-1" stroke="none" stroke-width="1" fill="none" fill-rule="evenodd">
        <g id="2" transform="translate(-1126.000000, -479.000000)">
            <g id="2_dark-Backround" transform="translate(1127.000000, 480.000000)">
                <path d="M136.724,119 C140.574,119 143.987667,118.217167 146.965,116.6515 C149.942333,115.085833 152.265167,112.942667 153.9335,110.222 C155.601833,107.501333 156.436,104.37 156.436,100.828 C156.436,96.9266667 155.409333,93.7696667 153.356,91.357 C151.302667,88.9443333 148.582,87.3273333 145.194,86.506 C147.555333,85.3253333 149.416167,83.7211667 150.7765,81.6935 C152.136833,79.6658333 152.817,77.3943333 152.817,74.879 C152.817,71.7476667 152.059833,68.9756667 150.5455,66.563 C149.031167,64.1503333 146.952167,62.2638333 144.3085,60.9035 C141.664833,59.5431667 138.597667,58.863 135.107,58.863 L135.107,58.863 L116.704,58.863 C115.574667,58.863 114.625,59.2351667 113.855,59.9795 C113.085,60.7238333 112.7,61.6863333 112.7,62.867 L112.7,62.867 L112.7,114.996 C112.7,116.125333 113.085,117.075 113.855,117.845 C114.625,118.615 115.574667,119 116.704,119 L116.704,119 L136.724,119 Z M135.107,83.58 L120.708,83.58 L120.708,66.255 L135.107,66.255 C138.033,66.255 140.432833,66.9608333 142.3065,68.3725 C144.180167,69.7841667 145.117,71.953 145.117,74.879 C145.117,77.805 144.180167,79.9866667 142.3065,81.424 C140.432833,82.8613333 138.033,83.58 135.107,83.58 L135.107,83.58 Z M136.724,111.608 L120.708,111.608 L120.708,90.972 L136.724,90.972 C139.085333,90.972 141.164333,91.3441667 142.961,92.0885 C144.757667,92.8328333 146.169333,93.9236667 147.196,95.361 C148.222667,96.7983333 148.736,98.6206667 148.736,100.828 C148.736,103.189333 148.222667,105.165667 147.196,106.757 C146.169333,108.348333 144.757667,109.554667 142.961,110.376 C141.164333,111.197333 139.085333,111.608 136.724,111.608 L136.724,111.608 Z M177.765,119 C179.305,119 180.562667,118.640667 181.538,117.922 C182.513333,117.203333 183.001,116.279333 183.001,115.15 C183.001,114.020667 182.680167,113.096667 182.0385,112.378 C181.396833,111.659333 180.562667,111.3 179.536,111.3 L179.536,111.3 L177.611,111.3 C176.481667,111.3 175.557667,110.684 174.839,109.452 C174.120333,108.22 173.761,106.654333 173.761,104.755 L173.761,104.755 L173.761,62.713 C173.761,61.5836667 173.401667,60.6596667 172.683,59.941 C171.964333,59.2223333 171.040333,58.863 169.911,58.863 C168.781667,58.863 167.857667,59.2223333 167.139,59.941 C166.420333,60.6596667 166.061,61.5836667 166.061,62.713 L166.061,62.713 L166.061,104.755 C166.061,107.527 166.548667,109.978167 167.524,112.1085 C168.499333,114.238833 169.859667,115.92 171.605,117.152 C173.350333,118.384 175.352333,119 177.611,119 L177.611,119 L177.765,119 Z M208.411,119.385 C211.850333,119.385 214.9175,118.640667 217.6125,117.152 C219.030921,116.368491 220.292925,115.435675 221.398511,114.353551 L221.501,114.25 L221.501,115.073 C221.501,116.115462 221.818112,116.993899 222.452337,117.708314 L222.6175,117.8835 C223.361833,118.627833 224.298667,119 225.428,119 C226.608667,119 227.558333,118.627833 228.277,117.8835 C228.995667,117.139167 229.355,116.202333 229.355,115.073 L229.355,115.073 L229.355,80.731 C229.355,79.5503333 228.995667,78.6006667 228.277,77.882 C227.558333,77.1633333 226.608667,76.804 225.428,76.804 C224.298667,76.804 223.361833,77.1633333 222.6175,77.882 C221.873167,78.6006667 221.501,79.5503333 221.501,80.731 L221.501,80.731 L221.501,102.445 C221.501,104.293 220.987667,105.961333 219.961,107.45 C218.934333,108.938667 217.561167,110.119333 215.8415,110.992 C214.121833,111.864667 212.158333,112.301 209.951,112.301 C207.641,112.301 205.562,111.851833 203.714,110.9535 C201.866,110.055167 200.403,108.669167 199.325,106.7955 C198.247,104.921833 197.708,102.547667 197.708,99.673 L197.708,99.673 L197.708,80.731 C197.708,79.6016667 197.335833,78.6648333 196.5915,77.9205 C195.847167,77.1761667 194.910333,76.804 193.781,76.804 C192.651667,76.804 191.714833,77.1761667 190.9705,77.9205 C190.226167,78.6648333 189.854,79.6016667 189.854,80.731 L189.854,80.731 L189.854,99.673 C189.854,103.933667 190.6625,107.527 192.2795,110.453 C193.8965,113.379 196.103833,115.599167 198.9015,117.1135 C201.699167,118.627833 204.869,119.385 208.411,119.385 Z M263.004,119.308 C265.365333,119.308 267.842167,118.871667 270.4345,117.999 C273.026833,117.126333 275.195667,115.997 276.941,114.611 C277.813667,113.943667 278.224333,113.148 278.173,112.224 C278.121667,111.3 277.659667,110.453 276.787,109.683 C276.119667,109.118333 275.336833,108.848833 274.4385,108.8745 C273.540167,108.900167 272.706,109.195333 271.936,109.76 C270.909333,110.53 269.561833,111.210167 267.8935,111.8005 C266.225167,112.390833 264.595333,112.686 263.004,112.686 C260.078,112.686 257.485667,112.044333 255.227,110.761 C252.968333,109.477667 251.197333,107.732333 249.914,105.525 C249.058444,104.053444 248.488074,102.445 248.202889,100.699667 L248.198,100.674 L277.48,100.674 C278.421111,100.674 279.211252,100.404411 279.850424,99.8652326 L280.021,99.7115 C280.688333,99.0698333 281.022,98.2613333 281.022,97.286 C281.022,93.2306667 280.264833,89.6501667 278.7505,86.5445 C277.236167,83.4388333 275.041667,81.0005 272.167,79.2295 C269.292333,77.4585 265.853,76.573 261.849,76.573 C257.793667,76.573 254.200333,77.4841667 251.069,79.3065 C247.937667,81.1288333 245.4865,83.6441667 243.7155,86.8525 C241.9445,90.0608333 241.059,93.7696667 241.059,97.979 C241.059,102.137 241.995833,105.820167 243.8695,109.0285 C245.743167,112.236833 248.3355,114.752167 251.6465,116.5745 C254.9575,118.396833 258.743333,119.308 263.004,119.308 Z M273.93,94.514 L248.286,94.514 L248.298504,94.4428652 C248.534316,93.160334 248.904879,91.9515944 249.410191,90.8166465 L249.606,90.3945 C250.684,88.1615 252.2625,86.4033333 254.3415,85.12 C256.4205,83.8366667 258.923,83.195 261.849,83.195 C264.415667,83.195 266.597333,83.7853333 268.394,84.966 C270.190667,86.1466667 271.576667,87.7508333 272.552,89.7785 C273.202222,91.1302778 273.647111,92.6018333 273.886667,94.1931667 L273.93,94.514 Z M313.516,119 C314.645333,119 315.595,118.615 316.365,117.845 C317.135,117.075 317.52,116.125333 317.52,114.996 L317.52,114.996 L317.52,92.358 L339.619,92.358 C340.799667,92.358 341.749333,92.0115 342.468,91.3185 C343.186667,90.6255 343.546,89.74 343.546,88.662 C343.546,87.584 343.186667,86.6985 342.468,86.0055 C341.749333,85.3125 340.799667,84.966 339.619,84.966 L339.619,84.966 L317.52,84.966 L317.52,66.255 L348.32,66.255 C349.500667,66.255 350.450333,65.9213333 351.169,65.254 C351.887667,64.5866667 352.247,63.714 352.247,62.636 C352.247,61.5066667 351.887667,60.5955 351.169,59.9025 C350.450333,59.2095 349.500667,58.863 348.32,58.863 L348.32,58.863 L313.516,58.863 C312.386667,58.863 311.437,59.2351667 310.667,59.9795 C309.897,60.7238333 309.512,61.6863333 309.512,62.867 L309.512,62.867 L309.512,114.996 C309.512,116.125333 309.897,117.075 310.667,117.845 C311.437,118.615 312.386667,119 313.516,119 Z M379.428,119.385 C382.867333,119.385 385.9345,118.640667 388.6295,117.152 C390.047921,116.368491 391.309925,115.435675 392.415511,114.353551 L392.518,114.25 L392.518,115.073 C392.518,116.115462 392.835112,116.993899 393.469337,117.708314 L393.6345,117.8835 C394.378833,118.627833 395.315667,119 396.445,119 C397.625667,119 398.575333,118.627833 399.294,117.8835 C400.012667,117.139167 400.372,116.202333 400.372,115.073 L400.372,115.073 L400.372,80.731 C400.372,79.5503333 400.012667,78.6006667 399.294,77.882 C398.575333,77.1633333 397.625667,76.804 396.445,76.804 C395.315667,76.804 394.378833,77.1633333 393.6345,77.882 C392.890167,78.6006667 392.518,79.5503333 392.518,80.731 L392.518,80.731 L392.518,102.445 C392.518,104.293 392.004667,105.961333 390.978,107.45 C389.951333,108.938667 388.578167,110.119333 386.8585,110.992 C385.138833,111.864667 383.175333,112.301 380.968,112.301 C378.658,112.301 376.579,111.851833 374.731,110.9535 C372.883,110.055167 371.42,108.669167 370.342,106.7955 C369.264,104.921833 368.725,102.547667 368.725,99.673 L368.725,99.673 L368.725,80.731 C368.725,79.6016667 368.352833,78.6648333 367.6085,77.9205 C366.864167,77.1761667 365.927333,76.804 364.798,76.804 C363.668667,76.804 362.731833,77.1761667 361.9875,77.9205 C361.243167,78.6648333 360.871,79.6016667 360.871,80.731 L360.871,80.731 L360.871,99.673 C360.871,103.933667 361.6795,107.527 363.2965,110.453 C364.9135,113.379 367.120833,115.599167 369.9185,117.1135 C372.716167,118.627833 375.886,119.385 379.428,119.385 Z M449.806,119.077 C450.935333,119.077 451.872167,118.704833 452.6165,117.9605 C453.360833,117.216167 453.733,116.279333 453.733,115.15 L453.733,115.15 L453.733,96.208 C453.733,91.9473333 452.9245,88.354 451.3075,85.428 C449.6905,82.502 447.483167,80.2818333 444.6855,78.7675 C441.887833,77.2531667 438.718,76.496 435.176,76.496 C431.788,76.496 428.733667,77.2403333 426.013,78.729 C424.58107,79.5125088 423.309113,80.4417701 422.197127,81.5167839 L422.086,81.627 L422.086,80.808 C422.086,79.7116667 421.776167,78.8145119 421.1565,78.1165357 L421.008,77.959 C420.289333,77.2403333 419.339667,76.881 418.159,76.881 C417.029667,76.881 416.092833,77.2403333 415.3485,77.959 C414.604167,78.6776667 414.232,79.6273333 414.232,80.808 L414.232,80.808 L414.232,115.15 C414.232,116.279333 414.604167,117.216167 415.3485,117.9605 C416.092833,118.704833 417.029667,119.077 418.159,119.077 C419.339667,119.077 420.289333,118.704833 421.008,117.9605 C421.726667,117.216167 422.086,116.279333 422.086,115.15 L422.086,115.15 L422.086,93.436 L422.092016,93.0824316 C422.148161,91.444377 422.597328,89.9733561 423.439516,88.6693691 L423.626,88.3925 C424.652667,86.9295 426.038667,85.7616667 427.784,84.889 C429.529333,84.0163333 431.48,83.58 433.636,83.58 C435.997333,83.58 438.089167,84.0291667 439.9115,84.9275 C441.733833,85.8258333 443.184,87.199 444.262,89.047 C445.34,90.895 445.879,93.282 445.879,96.208 L445.879,96.208 L445.879,115.15 C445.879,116.279333 446.251167,117.216167 446.9955,117.9605 C447.739833,118.704833 448.676667,119.077 449.806,119.077 Z M485.842,119.308 C491.386,119.308 496.006,117.588333 499.702,114.149 C500.420667,113.430333 500.728667,112.621833 500.626,111.7235 C500.523333,110.825167 500.035667,110.016667 499.163,109.298 C498.495667,108.733333 497.725667,108.4895 496.853,108.5665 C495.980333,108.6435 495.133333,109.015667 494.312,109.683 C493.182667,110.607 491.937833,111.287167 490.5775,111.7235 C489.217167,112.159833 487.638667,112.378 485.842,112.378 C483.121333,112.378 480.734333,111.749167 478.681,110.4915 C476.627667,109.233833 475.0235,107.527 473.8685,105.371 C472.7135,103.215 472.136,100.751 472.136,97.979 C472.136,95.053 472.700667,92.512 473.83,90.356 C474.959333,88.2 476.525,86.5188333 478.527,85.3125 C480.529,84.1061667 482.839,83.503 485.457,83.503 C489.204333,83.503 492.335667,84.8376667 494.851,87.507 C495.569667,88.2256667 496.365333,88.6748333 497.238,88.8545 C498.110667,89.0341667 498.906333,88.8673333 499.625,88.354 C500.549,87.6866667 501.113667,86.9166667 501.319,86.044 C501.524333,85.1713333 501.267667,84.3243333 500.549,83.503 C498.547,81.193 496.288333,79.4605 493.773,78.3055 C491.257667,77.1505 488.485667,76.573 485.457,76.573 C481.401667,76.573 477.808333,77.4841667 474.677,79.3065 C471.545667,81.1288333 469.081667,83.657 467.285,86.891 C465.488333,90.125 464.59,93.821 464.59,97.979 C464.59,102.034333 465.501167,105.666167 467.3235,108.8745 C469.145833,112.082833 471.661167,114.623833 474.8695,116.4975 C478.077833,118.371167 481.735333,119.308 485.842,119.308 Z M529.732,119 C531.066667,119 532.1575,118.640667 533.0045,117.922 C533.8515,117.203333 534.275,116.279333 534.275,115.15 C534.275,114.020667 533.954167,113.096667 533.3125,112.378 C532.670833,111.659333 531.888,111.3 530.964,111.3 L530.964,111.3 L528.346,111.3 C526.703333,111.3 525.317333,110.607 524.188,109.221 C523.058667,107.835 522.494,106.115333 522.494,104.062 L522.494,104.062 L522.494,85.043 L529.039,85.043 C530.027167,85.043 530.842796,84.7841944 531.485889,84.2665833 L531.657,84.119 C532.324333,83.503 532.658,82.733 532.658,81.809 C532.658,80.7823333 532.324333,79.961 531.657,79.345 C530.989667,78.729 530.117,78.421 529.039,78.421 L529.039,78.421 L522.494,78.421 L522.494,67.333 C522.494,66.2905385 522.187822,65.4230355 521.575467,64.7304911 L521.416,64.561 C520.697333,63.8423333 519.773333,63.483 518.644,63.483 C517.514667,63.483 516.590667,63.8423333 515.872,64.561 C515.153333,65.2796667 514.794,66.2036667 514.794,67.333 L514.794,67.333 L514.794,78.421 L511.252,78.421 C510.263833,78.421 509.448204,78.6798056 508.805111,79.1974167 L508.634,79.345 C507.966667,79.961 507.633,80.7823333 507.633,81.809 C507.633,82.733 507.966667,83.503 508.634,84.119 C509.301333,84.735 510.174,85.043 511.252,85.043 L511.252,85.043 L514.794,85.043 L514.794,104.062 C514.794,106.719255 515.316925,109.126415 516.362775,111.283481 L516.565,111.685 C517.745667,113.943667 519.362667,115.7275 521.416,117.0365 C523.469333,118.3455 525.779333,119 528.346,119 L528.346,119 L529.732,119 Z M562.996,119.308 C567.154,119.308 570.824333,118.396833 574.007,116.5745 C577.189667,114.752167 579.679333,112.236833 581.476,109.0285 C583.272667,105.820167 584.171,102.137 584.171,97.979 C584.171,93.7696667 583.259833,90.0608333 581.4375,86.8525 C579.615167,83.6441667 577.112667,81.1288333 573.93,79.3065 C570.747333,77.4841667 567.102667,76.573 562.996,76.573 C558.838,76.573 555.167667,77.4841667 551.985,79.3065 C548.802333,81.1288333 546.299833,83.6441667 544.4775,86.8525 C542.655167,90.0608333 541.744,93.7696667 541.744,97.979 C541.744,102.137 542.655167,105.820167 544.4775,109.0285 C546.299833,112.236833 548.802333,114.752167 551.985,116.5745 C555.167667,118.396833 558.838,119.308 562.996,119.308 Z M562.996,112.378 C560.326667,112.378 557.965333,111.762 555.912,110.53 C553.858667,109.298 552.241667,107.604 551.061,105.448 C549.880333,103.292 549.29,100.802333 549.29,97.979 C549.29,95.1556667 549.880333,92.6531667 551.061,90.4715 C552.241667,88.2898333 553.858667,86.583 555.912,85.351 C557.965333,84.119 560.326667,83.503 562.996,83.503 C565.665333,83.503 568.026667,84.119 570.08,85.351 C572.133333,86.583 573.7375,88.2898333 574.8925,90.4715 C576.0475,92.6531667 576.625,95.1556667 576.625,97.979 C576.625,100.802333 576.0475,103.292 574.8925,105.448 C573.7375,107.604 572.133333,109.298 570.08,110.53 C568.026667,111.762 565.665333,112.378 562.996,112.378 Z M599.725,119 C601.008333,119 601.970833,118.666333 602.6125,117.999 C603.254167,117.331667 603.575,116.382 603.575,115.15 L603.575,115.15 L603.575,92.666 L603.580679,92.31488 C603.648824,90.22664 604.330274,88.47104 605.625029,87.04808 L605.8465,86.814 C607.360833,85.274 609.427,84.2216667 612.045,83.657 C614.663,83.0923333 617.614667,83.1436667 620.9,83.811 C621.567333,83.965 622.183333,83.9906667 622.748,83.888 C623.312667,83.7853333 623.813167,83.5415 624.2495,83.1565 C624.685833,82.7715 624.981,82.2196667 625.135,81.501 C625.494333,80.115 624.916833,78.9215 623.4025,77.9205 C621.888167,76.9195 619.591,76.419 616.511,76.419 C613.431,76.419 610.607667,77.1376667 608.041,78.575 C606.329889,79.5332222 604.85263,80.7138889 603.609222,82.117 L603.575,82.157 L603.575,80.731 C603.575,79.5393333 603.298363,78.6243036 602.745089,77.9859107 L602.6125,77.8435 C601.970833,77.2018333 601.008333,76.881 599.725,76.881 C598.493,76.881 597.543333,77.2146667 596.876,77.882 C596.208667,78.5493333 595.875,79.499 595.875,80.731 L595.875,80.731 L595.875,115.15 C595.875,116.433333 596.208667,117.395833 596.876,118.0375 C597.543333,118.679167 598.493,119 599.725,119 Z" id="BlueFunctor" fill="#FFFFFF" fill-rule="nonzero"></path>
                <g id="Path-Copy-5">
                    <path d="M45.1058785,28.6202532 C31.0768749,28.6202532 17.0478714,28.6202532 3.01886792,28.6202532 L3.01886792,114.332927 C3.01886792,116.91048 5.10838758,119 7.68594071,119 C10.2634938,119 12.3530135,116.91048 12.3530135,114.332927 L12.3530135,92.2298485 L12.3530135,92.2298485 L37.5488815,92.2298485 C40.100674,92.2298485 42.1692835,90.146355 42.1692835,87.5561997 C42.1692835,84.9659809 40.100674,82.882551 37.5488815,82.882551 L12.3530135,82.882551 L12.3530135,38.0311378 C23.2706351,38.0311378 34.1882568,38.0311378 45.1058785,38.0311378 C47.7046225,38.0311378 49.8113208,35.9244395 49.8113208,33.3256955 C49.8113208,30.7269514 47.7046225,28.6202532 45.1058785,28.6202532 Z" stroke="#84B9FF" stroke-width="3" fill="#84B9FF"></path>
                    <path d="M38.2999142,65.6673841 C41.4775916,65.6673841 44.655269,65.6673841 47.8329463,65.6673841 C60.1632771,65.6673841 70.4498216,75.5447622 70.4558388,87.6300217 C70.4618561,99.7566917 60.3979489,109.614474 48.026921,109.614474 L30.4608727,109.614474 C27.8096323,109.614474 25.6603774,111.715496 25.6603774,114.307237 C25.6603774,116.898978 27.8096323,119 30.4608727,119 L48.026921,119 C56.5672407,119 64.5964197,115.708598 70.6353204,109.789755 C76.6742858,103.870786 80,95.9854226 80,87.6147385 C80,79.2440544 76.6742858,71.3665544 70.6353204,65.4477121 C68.865609,63.7131655 66.9240508,62.2010812 64.8497902,60.9384109 C66.9240508,59.6757406 68.865609,58.1715198 70.6353204,56.4370366 C76.6742858,50.5181309 80,42.6484944 80,34.2778738 C80,25.9072531 76.6742858,18.0738904 70.6353204,12.1550481 C64.5964197,6.23607899 56.5672407,3.01265823 48.026921,3.01265823 L34.6259182,3.01265823 C31.9746778,3.01265823 29.8254228,5.11367973 29.8254228,7.7054211 C29.8254228,10.2971625 31.9746778,12.398184 34.6259182,12.398184 L47.8329463,12.398184 C60.1631477,12.398184 70.4497569,22.2437907 70.4558388,34.3289868 C70.4619208,46.4556568 60.3980136,56.2818584 48.026921,56.2818584 C44.9080006,56.2818584 41.7890802,56.2818584 38.6701597,56.2818584 C36.0469843,56.2818584 33.8920242,58.3534845 33.7886241,60.9746213 C33.6903373,63.466138 35.6304336,65.5655885 38.1219503,65.6638753 C38.1812428,65.6662143 38.2405756,65.6673841 38.2999142,65.6673841 Z" id="Path-Copy-6" stroke="#FFFFFF" stroke-width="3" fill="#FFFFFF"></path>
                    <ellipse id="Oval-Copy-2" stroke="#84B9FF" stroke-width="0.745283019" fill="#84B9FF" cx="9.81132075" cy="9.79113924" rx="9.81132075" ry="9.79113924"></ellipse>
                </g>
            </g>
        </g>
    </g>
</svg>